<?xml version="1.0" encoding="UTF-8"?>
<!DOCTYPE svg PUBLIC "-//W3C//DTD SVG 1.1//EN" "http://www.w3.org/Graphics/SVG/1.1/DTD/svg11.dtd">
<!-- Creator: CorelDRAW 2018 (64-Bit) -->
<svg xmlns="http://www.w3.org/2000/svg" xml:space="preserve" width="15.875mm" height="15.875mm" version="1.1" style="shape-rendering:geometricPrecision; text-rendering:geometricPrecision; image-rendering:optimizeQuality; fill-rule:evenodd; clip-rule:evenodd"
viewBox="0 0 1587.5 1587.5"
 xmlns:xlink="http://www.w3.org/1999/xlink">
 <defs>
  <style type="text/css">
   <![CDATA[
    .fil0 {fill:#FEFEFE}
   ]]>
  </style>
 </defs>
 <g id="Layer_x0020_1">
  <metadata id="CorelCorpID_0Corel-Layer"/>
  <path class="fil0" d="M647.01 1380.46l0 137.23 -33.18 -26.81c-5.13,-4.14 -127.12,-103.18 -250.82,-245.2 -170.65,-195.92 -257.17,-371.79 -257.17,-522.7l0 -14.96c0,-298.4 242.77,-541.17 541.17,-541.17 298.4,0 541.17,242.77 541.17,541.17l0 14.96c0,12.67 -0.67,25.54 -1.89,38.57l-105.83 -96.55c-21.68,-220.06 -207.79,-392.55 -433.45,-392.55 -240.17,0 -435.58,195.4 -435.58,435.57l0 14.96c0,255.02 328.58,563.73 435.58,657.48l0 0zm324.7 -75.84l158.39 0 0 -158.39 -158.39 0 0 158.39zm-324.7 -820.99c123.72,0 224.39,100.67 224.39,224.39 0,123.73 -100.66,224.39 -224.39,224.39 -123.73,0 -224.39,-100.66 -224.39,-224.39 0,-123.72 100.66,-224.39 224.39,-224.39zm0 105.6c-65.51,0 -118.79,53.28 -118.79,118.79 0,65.5 53.28,118.79 118.79,118.79 65.5,0 118.79,-53.29 118.79,-118.79 0,-65.51 -53.29,-118.79 -118.79,-118.79zm742.58 643.64l-29.69 -27.09 0 169.52c0,78.94 -64.22,143.15 -143.16,143.15l-334.31 0c-78.94,0 -143.16,-64.21 -143.16,-143.15l0 -169.51 -29.69 27.08 -71.16 -78.01 411.16 -375.1 411.17 375.1 -71.16 78.01zm-135.28 -123.42l-204.73 -186.76 -204.72 186.76 0 265.84c0,20.72 16.85,37.57 37.57,37.57l334.31 0c20.72,0 37.57,-16.85 37.57,-37.57l0 -265.84zm0 0z"/>
 </g>
</svg>
