<?xml version="1.0" encoding="UTF-8"?>
<!DOCTYPE svg PUBLIC "-//W3C//DTD SVG 1.1//EN" "http://www.w3.org/Graphics/SVG/1.1/DTD/svg11.dtd">
<!-- Creator: CorelDRAW 2018 (64-Bit) -->
<svg xmlns="http://www.w3.org/2000/svg" xml:space="preserve" width="15.875mm" height="15.875mm" version="1.1" style="shape-rendering:geometricPrecision; text-rendering:geometricPrecision; image-rendering:optimizeQuality; fill-rule:evenodd; clip-rule:evenodd"
viewBox="0 0 1587.5 1587.5"
 xmlns:xlink="http://www.w3.org/1999/xlink">
 <defs>
  <style type="text/css">
   <![CDATA[
    .fil0 {fill:#FEFEFE}
   ]]>
  </style>
 </defs>
 <g id="Layer_x0020_1">
  <metadata id="CorelCorpID_0Corel-Layer"/>
  <g id="_2808648326480">
   <g>
    <g>
     <path class="fil0" d="M1351.73 271.96l-1110.72 0c-18.23,0 -35.3,4.48 -50.74,11.87l603.47 603.47 135.26 -129.99c0,0 0.01,-0.02 0.02,-0.02 0,-0.01 0.01,-0.01 0.01,-0.01l473.46 -473.44c-15.44,-7.4 -32.52,-11.88 -50.76,-11.88z"/>
    </g>
   </g>
   <g>
    <g>
     <path class="fil0" d="M1458.31 339.68l-445.55 445.53 445.54 445.54c7.39,-15.44 11.87,-32.52 11.87,-50.75l0 -789.6c0,-18.22 -4.47,-35.29 -11.86,-50.72z"/>
    </g>
   </g>
   <g>
    <g>
     <path class="fil0" d="M134.44 339.66c-7.39,15.44 -11.87,32.5 -11.87,50.74l0 789.61c0,18.22 4.47,35.3 11.86,50.73l445.56 -445.54 -445.55 -445.54z"/>
    </g>
   </g>
   <g>
    <g>
     <path class="fil0" d="M956.93 841.03l-135.28 130.01c-7.71,7.71 -17.81,11.57 -27.91,11.57 -10.1,0 -20.2,-3.85 -27.91,-11.57l-130.02 -130.01 -445.56 445.54c15.44,7.39 32.52,11.87 50.76,11.87l1110.72 0c18.23,0 35.3,-4.48 50.74,-11.86l-445.54 -445.55z"/>
    </g>
   </g>
   <g>
   </g>
   <g>
   </g>
   <g>
   </g>
   <g>
   </g>
   <g>
   </g>
   <g>
   </g>
   <g>
   </g>
   <g>
   </g>
   <g>
   </g>
   <g>
   </g>
   <g>
   </g>
   <g>
   </g>
   <g>
   </g>
   <g>
   </g>
   <g>
   </g>
  </g>
 </g>
</svg>
