<?xml version="1.0" encoding="UTF-8"?>
<!DOCTYPE svg PUBLIC "-//W3C//DTD SVG 1.1//EN" "http://www.w3.org/Graphics/SVG/1.1/DTD/svg11.dtd">
<!-- Creator: CorelDRAW 2018 (64-Bit) -->
<svg xmlns="http://www.w3.org/2000/svg" xml:space="preserve" width="15.875mm" height="15.875mm" version="1.1" style="shape-rendering:geometricPrecision; text-rendering:geometricPrecision; image-rendering:optimizeQuality; fill-rule:evenodd; clip-rule:evenodd"
viewBox="0 0 1587.5 1587.5"
 xmlns:xlink="http://www.w3.org/1999/xlink">
 <defs>
  <style type="text/css">
   <![CDATA[
    .fil0 {fill:#FEFEFE}
   ]]>
  </style>
 </defs>
 <g id="Layer_x0020_1">
  <metadata id="CorelCorpID_0Corel-Layer"/>
  <g id="_2843127035072">
   <g>
    <g>
     <g>
      <path class="fil0" d="M1409.01 1147.09l-131.45 -87.64 -116.86 -77.89c-22.54,-15 -52.85,-10.08 -69.5,11.29l-72.31 92.95c-15.54,20.17 -43.47,25.97 -65.74,13.64 -49.07,-27.29 -107.09,-52.99 -235.1,-181.17 -128.01,-128.18 -153.88,-186.03 -181.17,-235.1 -12.33,-22.27 -6.53,-50.21 13.64,-65.74l92.95 -72.31c21.37,-16.65 26.29,-46.95 11.29,-69.5l-75.5 -113.26 -90.03 -135.05c-15.32,-22.99 -46,-29.89 -69.69,-15.67l-103.83 62.28c-28.06,16.54 -48.69,43.23 -57.61,74.56 -28.39,103.53 -34.12,331.89 331.87,697.88 365.99,365.99 594.34,360.25 697.86,331.85 31.33,-8.91 58.02,-29.54 74.56,-57.61l62.29 -103.82c14.22,-23.69 7.32,-54.37 -15.67,-69.69z"/>
      <path class="fil0" d="M920.97 388.24c191.85,0.22 347.32,155.69 347.54,347.54 0,11.29 9.14,20.44 20.44,20.44 11.29,0 20.44,-9.15 20.44,-20.44 -0.24,-214.42 -174,-388.18 -388.42,-388.42 -11.29,0 -20.44,9.15 -20.44,20.44 0,11.29 9.15,20.44 20.44,20.44z"/>
      <path class="fil0" d="M920.97 510.9c124.14,0.15 224.73,100.74 224.87,224.87 0,11.29 9.15,20.44 20.44,20.44 11.3,0 20.45,-9.15 20.45,-20.44 -0.18,-146.71 -119.06,-265.59 -265.77,-265.76 -11.29,0 -20.44,9.15 -20.44,20.44 0.01,11.3 9.16,20.45 20.45,20.45z"/>
      <path class="fil0" d="M920.97 633.56c56.42,0.06 102.15,45.79 102.21,102.21 0,11.29 9.15,20.44 20.45,20.44 11.29,0 20.44,-9.15 20.44,-20.44 -0.09,-78.99 -64.11,-143.01 -143.1,-143.1 -11.29,0 -20.44,9.15 -20.44,20.44 0,11.3 9.15,20.45 20.44,20.45z"/>
     </g>
    </g>
   </g>
   <g>
   </g>
   <g>
   </g>
   <g>
   </g>
   <g>
   </g>
   <g>
   </g>
   <g>
   </g>
   <g>
   </g>
   <g>
   </g>
   <g>
   </g>
   <g>
   </g>
   <g>
   </g>
   <g>
   </g>
   <g>
   </g>
   <g>
   </g>
   <g>
   </g>
  </g>
 </g>
</svg>
